<svg id="Layer_1" data-name="Layer 1" xmlns="http://www.w3.org/2000/svg" viewBox="0 0 236.49 301"><defs><style>.cls-1{fill:#fff;}.cls-1,.cls-12{stroke:#000;}.cls-1,.cls-12,.cls-2,.cls-3,.cls-4{stroke-miterlimit:10;}.cls-12,.cls-2,.cls-3,.cls-4{fill:none;}.cls-2,.cls-3,.cls-4{stroke:blue;stroke-width:2px;}.cls-3{stroke-dasharray:12.26 12.26;}.cls-4{stroke-dasharray:11.42 11.42;}.cls-5{font-size:12px;}.cls-13,.cls-43,.cls-5{font-family:MyriadPro-Regular, Myriad Pro;}.cls-6{letter-spacing:-0.01em;}.cls-7{letter-spacing:0em;}.cls-8{letter-spacing:-0.01em;}.cls-9{letter-spacing:-0.01em;}.cls-10{letter-spacing:0.02em;}.cls-11{letter-spacing:-0.01em;}.cls-13{font-size:6px;}.cls-14{letter-spacing:-0.07em;}.cls-15{letter-spacing:-0.01em;}.cls-16{letter-spacing:-0.01em;}.cls-17{letter-spacing:-0.01em;}.cls-18{letter-spacing:-0.05em;}.cls-19{letter-spacing:0em;}.cls-20{letter-spacing:0em;}.cls-21{letter-spacing:-0.05em;}.cls-22{letter-spacing:0.01em;}.cls-23{letter-spacing:0.02em;}.cls-24{letter-spacing:0.03em;}.cls-25{letter-spacing:-0.01em;}.cls-26{letter-spacing:-0.01em;}.cls-27{letter-spacing:-0.07em;}.cls-28{letter-spacing:0em;}.cls-29{letter-spacing:0.01em;}.cls-30{letter-spacing:-0.03em;}.cls-31{letter-spacing:0em;}.cls-32{letter-spacing:0.01em;}.cls-33{letter-spacing:-0.01em;}.cls-34{letter-spacing:0em;}.cls-35{letter-spacing:0em;}.cls-36{letter-spacing:-0.01em;}.cls-37{letter-spacing:-0.01em;}.cls-38{font-size:11px;fill:blue;font-family:MyriadPro-Bold, Myriad Pro;font-weight:700;}.cls-39{letter-spacing:-0.02em;}.cls-40{letter-spacing:-0.01em;}.cls-41{letter-spacing:-0.01em;}.cls-42{letter-spacing:0em;}.cls-43{font-size:7px;}.cls-44{letter-spacing:0.01em;}.cls-45{letter-spacing:-0.03em;}.cls-46{letter-spacing:-0.01em;}.cls-47{letter-spacing:0em;}</style></defs><title>SDN33</title><rect id="sdnController" class="cls-1" x="74.07" y="22.35" width="87.34" height="31.65"/><rect id="switch" class="cls-1" x="39.73" y="108.33" width="162.19" height="36.08"/><rect id="client" class="cls-1" x="42.81" y="243.12" width="50.23" height="36.08"/><rect id="server" class="cls-1" x="135.84" y="225.5" width="58.4" height="75"/><g id="CONTROLLER"><polyline class="cls-2" points="235.49 178.25 235.49 184.25 229.49 184.25"/><line class="cls-3" x1="217.23" y1="184.25" x2="27.12" y2="184.25"/><polyline class="cls-2" points="20.99 184.25 14.99 184.25 14.99 178.25"/><line class="cls-4" x1="14.99" y1="166.83" x2="14.99" y2="12.71"/><polyline class="cls-2" points="14.99 7 14.99 1 20.99 1"/><line class="cls-3" x1="33.26" y1="1" x2="223.36" y2="1"/><polyline class="cls-2" points="229.49 1 235.49 1 235.49 7"/><line class="cls-4" x1="235.49" y1="18.42" x2="235.49" y2="172.54"/></g><text x="-17.01" y="-20.25"></text><text class="cls-5" transform="translate(84.49 42.5)">sdn<tspan class="cls-6" x="18.18" y="0">C</tspan><tspan x="25.01" y="0">o</tspan><tspan class="cls-7" x="31.6" y="0">n</tspan><tspan x="38.21" y="0">t</tspan><tspan class="cls-8" x="42.18" y="0">r</tspan><tspan x="45.98" y="0">oller</tspan></text><text class="cls-5" transform="translate(104.74 131.73)">swi<tspan class="cls-9" x="16.39" y="0">t</tspan><tspan x="20.29" y="0">ch</tspan></text><text class="cls-5" transform="translate(148.17 266)">se<tspan class="cls-10" x="10.76" y="0">r</tspan><tspan class="cls-11" x="14.99" y="0">v</tspan><tspan x="20.64" y="0">er</tspan></text><text class="cls-5" transform="translate(54.92 266)">clie<tspan class="cls-7" x="17.03" y="0">n</tspan><tspan x="23.64" y="0">t</tspan></text><g id="clientToSwitch_line"><line class="cls-12" x1="57.99" y1="243.12" x2="58.44" y2="190.28"/><path d="M75.5,204.5a30.22,30.22,0,0,0,4.68,8.59l-4.74-1.76L70.67,213A30.2,30.2,0,0,0,75.5,204.5Z" transform="translate(-17.01 -20.25)"/></g><text class="cls-13" transform="translate(19.24 224)">Clie<tspan class="cls-7" x="9.31" y="0">n</tspan><tspan x="12.61" y="0">t</tspan><tspan class="cls-14" x="14.6" y="0">T</tspan><tspan x="17.15" y="0">o</tspan><tspan class="cls-15" x="20.45" y="0">S</tspan><tspan x="23.36" y="0">wi</tspan><tspan class="cls-16" x="29.18" y="0">t</tspan><tspan x="31.13" y="0">ch</tspan></text><g id="SwitchToClient_line"><line class="cls-12" x1="78.66" y1="237.74" x2="79.11" y2="184.9"/><path d="M95.61,264a30.22,30.22,0,0,1,4.83-8.51l-4.77,1.68-4.74-1.76A30.2,30.2,0,0,1,95.61,264Z" transform="translate(-17.01 -20.25)"/></g><text class="cls-13" transform="translate(81.24 224)"><tspan class="cls-17">S</tspan><tspan x="2.91" y="0">wi</tspan><tspan class="cls-16" x="8.73" y="0">t</tspan><tspan x="10.68" y="0">c</tspan><tspan class="cls-18" x="13.37" y="0">h</tspan><tspan class="cls-14" x="16.4" y="0">T</tspan><tspan x="18.95" y="0">oClie</tspan><tspan class="cls-19" x="31.55" y="0">n</tspan><tspan class="cls-20" x="34.86" y="0">t</tspan></text><g id="ServerToSwitch_line"><line class="cls-12" x1="151.6" y1="225.5" x2="151.9" y2="190.28"/><path d="M169,204.5a30.22,30.22,0,0,0,4.68,8.59l-4.74-1.76L164.13,213A30.2,30.2,0,0,0,169,204.5Z" transform="translate(-17.01 -20.25)"/></g><g id="SwitchToServer_line"><line class="cls-12" x1="175.04" y1="220.12" x2="175.34" y2="184.9"/><path d="M192,246.4a30.22,30.22,0,0,1,4.83-8.51l-4.77,1.68-4.74-1.76A30.2,30.2,0,0,1,192,246.4Z" transform="translate(-17.01 -20.25)"/></g><text class="cls-13" transform="translate(176.49 207.63)"><tspan class="cls-17">S</tspan><tspan x="2.91" y="0">wi</tspan><tspan class="cls-16" x="8.73" y="0">t</tspan><tspan x="10.68" y="0">c</tspan><tspan class="cls-21" x="13.37" y="0">h</tspan><tspan class="cls-14" x="16.4" y="0">T</tspan><tspan x="18.95" y="0">o</tspan><tspan class="cls-22" x="22.25" y="0">S</tspan><tspan x="25.24" y="0">e</tspan><tspan class="cls-23" x="28.25" y="0">r</tspan><tspan class="cls-11" x="30.36" y="0">v</tspan><tspan x="33.19" y="0">er</tspan></text><text class="cls-13" transform="translate(112.49 207.3)"><tspan class="cls-22">S</tspan><tspan x="2.99" y="0">e</tspan><tspan class="cls-24" x="6" y="0">r</tspan><tspan class="cls-25" x="8.11" y="0">v</tspan><tspan x="10.94" y="0">e</tspan><tspan class="cls-26" x="13.94" y="0">r</tspan><tspan class="cls-27" x="15.82" y="0">T</tspan><tspan x="18.38" y="0">o</tspan><tspan class="cls-17" x="21.67" y="0">S</tspan><tspan x="24.58" y="0">wi</tspan><tspan class="cls-16" x="30.4" y="0">t</tspan><tspan class="cls-28" x="32.35" y="0">ch</tspan></text><g id="SwitchInFromClient_line"><line class="cls-12" x1="58.49" y1="184" x2="58.78" y2="150.44"/><path d="M75.84,164.65a30.22,30.22,0,0,0,4.68,8.59l-4.74-1.76L71,173.16A30.2,30.2,0,0,0,75.84,164.65Z" transform="translate(-17.01 -20.25)"/></g><text class="cls-13" transform="translate(8.24 175.25)"><tspan class="cls-17">S</tspan><tspan x="2.91" y="0">wi</tspan><tspan class="cls-16" x="8.73" y="0">t</tspan><tspan x="10.68" y="0">ch</tspan><tspan class="cls-29" x="16.7" y="0">I</tspan><tspan x="18.19" y="0">n</tspan><tspan class="cls-30" x="21.52" y="0">F</tspan><tspan class="cls-25" x="24.29" y="0">r</tspan><tspan x="26.19" y="0">omClie</tspan><tspan class="cls-19" x="43.79" y="0">n</tspan><tspan x="47.1" y="0">t</tspan></text><g id="SwitchOutToClient_line"><line class="cls-12" x1="78.74" y1="178.22" x2="79.02" y2="144.49"/><path d="M95.7,204.5a30.22,30.22,0,0,1,4.83-8.51l-4.77,1.68L91,195.92A30.2,30.2,0,0,1,95.7,204.5Z" transform="translate(-17.01 -20.25)"/></g><text class="cls-13" transform="translate(81.24 175.25)"><tspan class="cls-17">S</tspan><tspan x="2.91" y="0">wi</tspan><tspan class="cls-16" x="8.73" y="0">t</tspan><tspan x="10.68" y="0">ch</tspan><tspan class="cls-31" x="16.7" y="0">O</tspan><tspan x="20.85" y="0">ut</tspan><tspan class="cls-27" x="26.14" y="0">T</tspan><tspan x="28.7" y="0">oClie</tspan><tspan class="cls-19" x="41.3" y="0">n</tspan><tspan x="44.6" y="0">t</tspan></text><g id="SwitchInFromServer_line"><line class="cls-12" x1="151.95" y1="184.79" x2="152.23" y2="151.23"/><path d="M169.29,165.45A30.22,30.22,0,0,0,174,174l-4.74-1.76L164.46,174A30.2,30.2,0,0,0,169.29,165.45Z" transform="translate(-17.01 -20.25)"/></g><text class="cls-13" transform="translate(100.49 162.25)"><tspan class="cls-17">S</tspan><tspan x="2.91" y="0">wi</tspan><tspan class="cls-16" x="8.73" y="0">t</tspan><tspan x="10.68" y="0">ch</tspan><tspan class="cls-29" x="16.7" y="0">I</tspan><tspan x="18.19" y="0">n</tspan><tspan class="cls-30" x="21.52" y="0">F</tspan><tspan class="cls-25" x="24.29" y="0">r</tspan><tspan x="26.19" y="0">om</tspan><tspan class="cls-32" x="34.49" y="0">S</tspan><tspan x="37.48" y="0">e</tspan><tspan class="cls-24" x="40.49" y="0">r</tspan><tspan class="cls-11" x="42.6" y="0">v</tspan><tspan x="45.43" y="0">er</tspan></text><g id="SwitchOutToServer_line"><line class="cls-12" x1="175.4" y1="178.13" x2="175.68" y2="144.4"/><path d="M192.35,204.42a30.22,30.22,0,0,1,4.83-8.51l-4.77,1.68-4.74-1.76A30.2,30.2,0,0,1,192.35,204.42Z" transform="translate(-17.01 -20.25)"/></g><text class="cls-13" transform="translate(176.49 162.25)"><tspan class="cls-17">S</tspan><tspan x="2.91" y="0">wi</tspan><tspan class="cls-16" x="8.73" y="0">t</tspan><tspan x="10.68" y="0">ch</tspan><tspan class="cls-31" x="16.7" y="0">O</tspan><tspan x="20.85" y="0">ut</tspan><tspan class="cls-27" x="26.14" y="0">T</tspan><tspan x="28.7" y="0">o</tspan><tspan class="cls-22" x="31.99" y="0">S</tspan><tspan x="34.99" y="0">e</tspan><tspan class="cls-24" x="37.99" y="0">r</tspan><tspan class="cls-11" x="40.1" y="0">v</tspan><tspan x="42.93" y="0">er</tspan></text><g id="SwitchOutToController_line"><line class="cls-12" x1="99.09" y1="108.33" x2="99.27" y2="87.29"/><path d="M116.33,101.5a30.22,30.22,0,0,0,4.68,8.59l-4.74-1.76L111.51,110A30.2,30.2,0,0,0,116.33,101.5Z" transform="translate(-17.01 -20.25)"/></g><g id="ControllerInFromSwitch_line"><line class="cls-12" x1="99.32" y1="81.07" x2="99.5" y2="60.04"/><path d="M116.56,74.25a30.22,30.22,0,0,0,4.68,8.59l-4.74-1.76-4.77,1.68A30.2,30.2,0,0,0,116.56,74.25Z" transform="translate(-17.01 -20.25)"/></g><text class="cls-13" transform="translate(39.73 98.5)"><tspan class="cls-17">S</tspan><tspan x="2.91" y="0">wi</tspan><tspan class="cls-16" x="8.73" y="0">t</tspan><tspan x="10.68" y="0">ch</tspan><tspan class="cls-31" x="16.7" y="0">O</tspan><tspan x="20.85" y="0">ut</tspan><tspan class="cls-27" x="26.14" y="0">T</tspan><tspan x="28.7" y="0">o</tspan><tspan class="cls-33" x="31.99" y="0">C</tspan><tspan x="35.41" y="0">o</tspan><tspan class="cls-34" x="38.7" y="0">n</tspan><tspan class="cls-35" x="42.01" y="0">t</tspan><tspan class="cls-11" x="43.99" y="0">r</tspan><tspan x="45.89" y="0">oller</tspan></text><text class="cls-13" transform="translate(37.73 69.75)"><tspan class="cls-33">C</tspan><tspan x="3.41" y="0">o</tspan><tspan class="cls-19" x="6.71" y="0">n</tspan><tspan x="10.01" y="0">t</tspan><tspan class="cls-11" x="12" y="0">r</tspan><tspan x="13.9" y="0">oller</tspan><tspan class="cls-29" x="25" y="0">I</tspan><tspan x="26.49" y="0">n</tspan><tspan class="cls-30" x="29.82" y="0">F</tspan><tspan class="cls-25" x="32.59" y="0">r</tspan><tspan x="34.49" y="0">om</tspan><tspan class="cls-36" x="42.79" y="0">S</tspan><tspan x="45.7" y="0">wi</tspan><tspan class="cls-16" x="51.52" y="0">t</tspan><tspan x="53.47" y="0">ch</tspan></text><g id="SwitchInFromController_line"><line class="cls-12" x1="130.64" y1="102.29" x2="130.82" y2="81.25"/><path d="M147.6,128.57a30.22,30.22,0,0,1,4.83-8.51l-4.77,1.68L142.91,120A30.2,30.2,0,0,1,147.6,128.57Z" transform="translate(-17.01 -20.25)"/></g><g id="ControllerOutToSwitch_line"><line class="cls-12" x1="130.87" y1="75.31" x2="131.05" y2="54.27"/><path d="M147.83,101.59a30.22,30.22,0,0,1,4.83-8.51l-4.77,1.68L143.14,93A30.2,30.2,0,0,1,147.83,101.59Z" transform="translate(-17.01 -20.25)"/></g><text class="cls-13" transform="translate(134.23 69.75)"><tspan class="cls-33">C</tspan><tspan x="3.41" y="0">o</tspan><tspan class="cls-19" x="6.71" y="0">n</tspan><tspan x="10.01" y="0">t</tspan><tspan class="cls-11" x="12" y="0">r</tspan><tspan x="13.9" y="0">oller</tspan><tspan class="cls-31" x="25" y="0">O</tspan><tspan x="29.15" y="0">ut</tspan><tspan class="cls-27" x="34.44" y="0">T</tspan><tspan x="37" y="0">o</tspan><tspan class="cls-17" x="40.29" y="0">S</tspan><tspan x="43.2" y="0">wi</tspan><tspan class="cls-16" x="49.02" y="0">t</tspan><tspan class="cls-35" x="50.97" y="0">ch</tspan></text><text class="cls-13" transform="translate(135.73 97.25)"><tspan class="cls-17">S</tspan><tspan x="2.91" y="0">wi</tspan><tspan class="cls-16" x="8.73" y="0">t</tspan><tspan x="10.68" y="0">ch</tspan><tspan class="cls-29" x="16.7" y="0">I</tspan><tspan x="18.19" y="0">n</tspan><tspan class="cls-30" x="21.52" y="0">F</tspan><tspan class="cls-25" x="24.29" y="0">r</tspan><tspan x="26.19" y="0">om</tspan><tspan class="cls-37" x="34.49" y="0">C</tspan><tspan x="37.9" y="0">o</tspan><tspan class="cls-34" x="41.2" y="0">n</tspan><tspan class="cls-35" x="44.5" y="0">t</tspan><tspan class="cls-11" x="46.49" y="0">r</tspan><tspan x="48.39" y="0">oller</tspan></text><text class="cls-38" transform="translate(17.23 12.25)"><tspan class="cls-39">C</tspan><tspan x="6.34" y="0">o</tspan><tspan class="cls-40" x="12.68" y="0">n</tspan><tspan x="19.06" y="0">t</tspan><tspan class="cls-41" x="23.1" y="0">r</tspan><tspan class="cls-42" x="27.19" y="0">oller</tspan></text><g id="InFromReader_line"><line class="cls-12" x1="9.99" y1="263" x2="36.77" y2="263"/><path d="M59.82,283.25A30.22,30.22,0,0,0,51.27,288L53,283.25l-1.72-4.75A30.2,30.2,0,0,0,59.82,283.25Z" transform="translate(-17.01 -20.25)"/></g><text class="cls-43" transform="translate(0 257.08)"><tspan class="cls-44">I</tspan><tspan x="1.74" y="0">n</tspan><tspan class="cls-45" x="5.63" y="0">F</tspan><tspan class="cls-46" x="8.86" y="0">r</tspan><tspan x="11.07" y="0">om</tspan><tspan class="cls-47" x="20.75" y="0">R</tspan><tspan x="24.55" y="0">eader</tspan></text></svg>